<svg id="Layer_1" data-name="Layer 1" xmlns="http://www.w3.org/2000/svg" xmlns:xlink="http://www.w3.org/1999/xlink" viewBox="0 0 2282.6 2282.6"><defs><style>.cls-1{fill:url(#radial-gradient);}.cls-2{fill:#f7f7f7;}.cls-3{fill:#1a1a1a;}</style><radialGradient id="radial-gradient" cx="1141.3" cy="1141.3" r="1141.3" gradientUnits="userSpaceOnUse"><stop offset="0" stop-color="#333"/><stop offset="1"/></radialGradient></defs><rect class="cls-1" width="2282.6" height="2282.6" rx="481.36"/><path class="cls-2" d="M1540.17,769c-37.28-121.2-111.58-230.27-214.55-305-84.34-61.19-174.64-93.8-283.37-93.88-194.9-.14-578.6,2.6-707.07,1.85a41.49,41.49,0,0,0-41.73,41.49V1871.42a41.49,41.49,0,0,0,41.13,41.5c135.83,1.11,436.26.42,436.28.08,6.72-150-28.24-383.21-119.31-488.89-11.6-13.46-23.75-27-39.24-35.68-46.83-26.35-131.82-8-185.79-19.2-48.83-10.16-60.68-39.74-47.42-87.19,5.11-18.26,7.19-44.28-2.13-58.23-18-26.9-16.15-45.44,10.22-65.49-31-23.24-45.16-44.79-8.24-75.45,25.25-20.95,18.33-51.69-9.67-75.12-43.82-36.63-41.63-60.5,7.76-90.9,64-39.41,96.35-97.41,102.43-171.89,7.32-89.72,41.36-165.52,101.55-227.6,0,0,0,0,0,0q6.69-6.9,13.79-13.54,10.1-9.5,21.09-18.5l3.32-2.7c-.26.76-.53,1.5-.77,2.27q-2.16,6.42-4.2,12.82c-25,77.91-37.94,156.75-31.95,237.56.88,12,2.23,24.12,4,36.24a47.75,47.75,0,0,1,1.41,7c.73,5.69,12.47,62.24,16.45,75.9,15.93,54.7,46.36,113.92,89.28,152.33,56.69,50.74,364.78,456.56,389.81,459.67,118.78,14.78,240.16-31.14,327.86-110.82a397,397,0,0,0,65.46-76.18,553.77,553.77,0,0,0,66.47-144.11C1578.6,1016.56,1576.54,887.25,1540.17,769Z"/><path class="cls-2" d="M836.68,1601.12q23.12-46.24,63-71.16t89-24.91q42,0,73.65,17.08T1111,1567v-56.21H1232.7v397.08H1111v-56.22q-17.8,27.77-49.46,44.84t-73.65,17.08q-48.4,0-88.24-25.27t-63-71.87q-23.13-46.61-23.13-107.81T836.68,1601.12Zm249.07,36.3q-25.27-26.33-61.56-26.33t-61.56,26q-25.26,26-25.26,71.52t25.26,72.23q25.26,26.68,61.56,26.68t61.56-26.33q25.24-26.31,25.26-71.87T1085.75,1637.42Z"/><path class="cls-2" d="M1945.38,1551.31q43.75,44.84,43.76,124.53v232h-121V1692.21q0-38.43-20.29-59.42t-55.86-21q-35.6,0-55.86,21t-20.28,59.42v215.62h-121V1692.21q0-38.43-20.28-59.42t-55.86-21q-35.6,0-55.86,21t-20.28,59.42v215.62H1320.93V1510.75h121.69v49.81q18.5-24.9,48.39-39.49t67.6-14.59q44.84,0,80.06,19.21a137.83,137.83,0,0,1,55.15,54.8q20.63-32.73,56.22-53.38a151.92,151.92,0,0,1,77.56-20.63Q1901.61,1506.48,1945.38,1551.31Z"/><circle class="cls-3" cx="920.37" cy="1019.05" r="177.52"/><path class="cls-3" d="M889.18,369.34c.19.27,135.44,190.3,20.22,492.72,64.89,22.11,70.83,28.88,70.83,28.88s109.28-311.75-5.88-521.87c-84,0-85.22.25-85.18.27Z"/><path class="cls-2" d="M1032.68,1019.05a112.3,112.3,0,0,1-192.11,79L610.65,1214.4a38.83,38.83,0,0,1,.43,5.66,40.45,40.45,0,0,1-25.78,37.67l-54.83,21.37a40.43,40.43,0,1,1-29.34-75.35l54.8-21.37a40.42,40.42,0,0,1,48,14.73l221.41-118.26a112.3,112.3,0,1,1,207.37-59.8Z"/></svg>